ModelForces
version=1
nRows=19
nColumns=15
inDegrees=no

This file contains the forces exerted on a model during a simulation.

A force is a generalized force, meaning that it can be either a force (N) or a torque (Nm).

Units are S.I. units (second, meters, Newtons, ...)
Angles are in degrees.

endheader
time	Liu	Thelen	contactForce.block.force.X	contactForce.block.force.Y	contactForce.block.force.Z	contactForce.block.torque.X	contactForce.block.torque.Y	contactForce.block.torque.Z	contactForce.ground.force.X	contactForce.ground.force.Y	contactForce.ground.force.Z	contactForce.ground.torque.X	contactForce.ground.torque.Y	contactForce.ground.torque.Z
      3.74930830	    837.52374804	    841.70884080	      5.25383128	    347.83381900	     -0.26155331	      0.01298668	      0.00000000	      0.26086404	     -5.25383128	   -347.83381900	      0.26155331	      1.19240450	     -0.01821654	     -0.27388611
      3.75300830	    837.38964106	    841.58400905	      4.12920218	    286.16857276	      0.15665617	     -0.00778797	     -0.00000000	      0.20527813	     -4.12920218	   -286.16857276	     -0.15665617	      0.98094578	     -0.01402553	     -0.23528312
      3.75670830	    839.11664311	    840.93515162	      3.01134831	    165.47808954	      0.30889602	     -0.01539367	     -0.00000000	      0.15006893	     -3.01134831	   -165.47808954	     -0.30889602	      0.56765833	     -0.01006556	     -0.14175532
      3.76040830	    841.75928598	    840.42488335	      1.79368889	     64.00014954	      0.21344325	     -0.01065850	      0.00000000	      0.08956963	     -1.79368889	    -64.00014954	     -0.21344325	      0.21979338	     -0.00597006	     -0.05695142
      3.76410830	    844.02301660	    841.17849878	      1.97715487	     47.51755581	      0.16358700	     -0.00817158	      0.00000000	      0.09876380	     -1.97715487	    -47.51755581	     -0.16358700	      0.16334214	     -0.00664583	     -0.04376228
      3.76780830	    845.14512865	    844.58427248	      6.01012525	    126.75583363	      0.09634603	     -0.00480509	     -0.00000000	      0.29974468	     -6.01012525	   -126.75583363	     -0.09634603	      0.43591965	     -0.02057758	     -0.12043695
      3.77150830	    845.67056163	    846.91379709	      9.53192884	    250.28610944	      0.30063283	     -0.01495642	      0.00000000	      0.47421150	     -9.53192884	   -250.28610944	     -0.30063283	      0.86089705	     -0.03249197	     -0.24521875
      3.77520830	    846.83285462	    847.51439671	      8.17082945	    337.88142316	      0.49944285	     -0.02480341	      0.00000000	      0.40578105	     -8.17082945	   -337.88142316	     -0.49944285	      1.16270714	     -0.02761189	     -0.34185465
      3.77890830	    848.43803629	    847.48212602	      6.21955593	    332.74005011	      0.41501076	     -0.02061243	      0.00000000	      0.30890799	     -6.21955593	   -332.74005011	     -0.41501076	      1.14576206	     -0.02098264	     -0.34786591
      3.78260830	    849.75290978	    847.57664144	      4.96169749	    238.31892033	      0.19958571	     -0.00993170	     -0.00000000	      0.24690202	     -4.96169749	   -238.31892033	     -0.19958571	      0.82108264	     -0.01687915	     -0.25724707
      3.78630830	    850.20854999	    848.06347074	      3.36737789	    115.89263796	     -0.01467219	      0.00073191	      0.00000000	      0.16797853	     -3.36737789	   -115.89263796	      0.01467219	      0.39935777	     -0.01162007	     -0.12893957
      3.79000830	    849.73993766	    848.75072688	      1.92843848	     44.80974781	     -0.08438215	      0.00421533	      0.00000000	      0.09633551	     -1.92843848	    -44.80974781	      0.08438215	      0.15437613	     -0.00674026	     -0.05124995
      3.79370830	    848.85252575	    849.92373657	      3.95762920	     71.17972452	     -0.19099321	      0.00953607	     -0.00000000	      0.19759981	     -3.95762920	    -71.17972452	      0.19099321	      0.24512405	     -0.01385286	     -0.08342034
      3.79740830	    848.38528320	    853.01960154	      9.86597980	    177.92205230	     -0.12470248	      0.00621294	      0.00000000	      0.49154421	     -9.86597980	   -177.92205230	      0.12470248	      0.61256811	     -0.03411707	     -0.21326577
      3.80110830	    849.56271560	    854.08397806	     11.71833487	    295.71999725	      1.37329182	     -0.06825859	      0.00000000	      0.58245229	    -11.71833487	   -295.71999725	     -1.37329182	      1.01858391	     -0.03867761	     -0.36289753
      3.80480830	    853.24625308	    853.24977982	      8.67720873	    348.09188125	      1.71076771	     -0.08494289	      0.00000000	      0.43084000	     -8.67720873	   -348.09188125	     -1.71076771	      1.20078344	     -0.02777985	     -0.43811318
      3.80850830	    857.63979505	    852.55542293	      7.16551223	    301.14591615	      1.22302583	     -0.06078289	      0.00000000	      0.35611721	     -7.16551223	   -301.14591615	     -1.22302583	      1.04073587	     -0.02318418	     -0.38885972
      3.81220830	    860.30469642	    853.15814413	      5.64000902	    185.43564657	      0.29880223	     -0.01488468	      0.00000000	      0.28095423	     -5.64000902	   -185.43564657	     -0.29880223	      0.64155773	     -0.01911738	     -0.24547514
      3.81590830	    859.95358960	    854.92191133	      3.17251661	     75.99115302	     -0.28907024	      0.01443154	      0.00000000	      0.15838470	     -3.17251661	    -75.99115302	      0.28907024	      0.26286360	     -0.01136582	     -0.10296055
